D:\school\WTK\thesis\model\3dpredictsim\Results\batch_windlass\Pog_s1_tmt_aCst_d05_k800_WL10_ig24_pas_GRF.mot
nRows=15
nColumns=19

name D:\school\WTK\thesis\model\3dpredictsim\Results\batch_windlass\Pog_s1_tmt_aCst_d05_k800_WL10_ig24_pas_GRF.mot
datacolumns 19
datarows 15
range 0.5276725513 0.6754208656
endheader
time 	ground_force_vx	ground_force_vy	ground_force_vz	ground_force_px	ground_force_py	ground_force_pz	1_ground_force_vx	1_ground_force_vy	1_ground_force_vz	1_ground_force_px	1_ground_force_py	1_ground_force_pz	ground_torque_x	ground_torque_y	ground_torque_z	1_ground_torque_x	1_ground_torque_y	1_ground_torque_z
        0.5276725513	       96.5586576472	      415.2591350355	        1.5841545309	        0.3172631644	        0.0000000000	        0.0377506349	     -149.6754302928	      129.2274480470	      -35.5571500266	        0.7838570094	        0.0000000000	       -0.0428936726	        0.0000000000	        0.0000000000	        0.0000000000	        0.0000000000	        0.0000000000	        0.0000000000	
        0.5382260023	       68.4709937794	      322.1299445473	        9.1317749240	        0.3234759055	        0.0000000000	        0.0353996358	     -128.0641046118	      264.8577965666	      -40.6976009436	        0.7996195837	        0.0000000000	       -0.0441262000	        0.0000000000	        0.0000000000	        0.0000000000	        0.0000000000	        0.0000000000	        0.0000000000	
        0.5487794533	       35.4673523933	      220.6607213108	        9.5224061720	        0.3347507678	        0.0000000000	        0.0301883561	      -73.9494458186	      497.9859399817	       -7.2889420701	        0.8098734058	        0.0000000000	       -0.0442488740	        0.0000000000	        0.0000000000	        0.0000000000	        0.0000000000	        0.0000000000	        0.0000000000	
        0.5593329044	       14.3340688411	      154.7703520560	       11.9731778234	        0.3471642927	        0.0000000000	        0.0236158774	      -95.7260556811	      715.1350115114	        8.0237128101	        0.8200719107	        0.0000000000	       -0.0438971520	        0.0000000000	        0.0000000000	        0.0000000000	        0.0000000000	        0.0000000000	        0.0000000000	
        0.5698863554	        6.8062752028	      126.1278039411	       15.6279327778	        0.3467915910	        0.0000000000	        0.0241189076	     -117.4139216934	      860.1263142059	       10.9714514996	        0.8300569406	        0.0000000000	       -0.0429667854	        0.0000000000	        0.0000000000	        0.0000000000	        0.0000000000	        0.0000000000	        0.0000000000	
        0.5804398064	        3.1865194955	       89.4059892531	       16.4511172767	        0.3472151126	        0.0000000000	        0.0242988503	     -119.9202967534	      885.1388513032	        8.7917198052	        0.8354493878	        0.0000000000	       -0.0423024720	        0.0000000000	        0.0000000000	        0.0000000000	        0.0000000000	        0.0000000000	        0.0000000000	
        0.5909932574	       -5.2848965940	       49.3830738793	       12.0524044954	        0.3469906688	        0.0000000000	        0.0242034625	     -109.5778545190	      857.1479622568	        8.4048261180	        0.8388963705	        0.0000000000	       -0.0417824203	        0.0000000000	        0.0000000000	        0.0000000000	        0.0000000000	        0.0000000000	        0.0000000000	
        0.6015467085	       -3.7696103206	        7.0503124314	        2.0861818118	        0.0000000000	        0.0000000000	        0.0000000000	      -97.9450200309	      821.1732035068	        7.8032734472	        0.8419246018	        0.0000000000	       -0.0414056223	        0.0000000000	        0.0000000000	        0.0000000000	        0.0000000000	        0.0000000000	        0.0000000000	
        0.6121001595	        0.0018851295	       -0.0017896791	       -0.0001274366	        0.0000000000	        0.0000000000	        0.0000000000	      -85.8194544172	      787.2216740648	       10.0666611892	        0.8447074339	        0.0000000000	       -0.0411052178	        0.0000000000	        0.0000000000	        0.0000000000	        0.0000000000	        0.0000000000	        0.0000000000	
        0.6226536105	        0.0000187140	       -0.0000147840	        0.0000002295	        0.0000000000	        0.0000000000	        0.0000000000	      -73.3327720240	      753.9080939971	       11.7619439486	        0.8475348478	        0.0000000000	       -0.0409159689	        0.0000000000	        0.0000000000	        0.0000000000	        0.0000000000	        0.0000000000	        0.0000000000	
        0.6332070615	        0.0000124158	       -0.0000085303	        0.0000005063	        0.0000000000	        0.0000000000	        0.0000000000	      -61.1994628436	      721.4963936234	       12.6863496174	        0.8506643801	        0.0000000000	       -0.0408245668	        0.0000000000	        0.0000000000	        0.0000000000	        0.0000000000	        0.0000000000	        0.0000000000	
        0.6437605126	        0.0001978859	       -0.0001221970	        0.0000110650	        0.0000000000	        0.0000000000	        0.0000000000	      -50.7607283158	      692.4958314892	       14.2700701458	        0.8550087904	        0.0000000000	       -0.0407657927	        0.0000000000	        0.0000000000	        0.0000000000	        0.0000000000	        0.0000000000	        0.0000000000	
        0.6543139636	        0.0036457174	       -0.0020713865	        0.0002426137	        0.0000000000	        0.0000000000	        0.0000000000	      -43.3325746114	      668.1527053891	       15.9171724250	        0.8603784603	        0.0000000000	       -0.0407160926	        0.0000000000	        0.0000000000	        0.0000000000	        0.0000000000	        0.0000000000	        0.0000000000	
        0.6648674146	       -0.0175167867	        0.0093081162	       -0.0013060729	        0.0000000000	        0.0000000000	        0.0000000000	      -37.6784519715	      647.7935699655	       17.0941683499	        0.8661318480	        0.0000000000	       -0.0406798871	        0.0000000000	        0.0000000000	        0.0000000000	        0.0000000000	        0.0000000000	        0.0000000000	
        0.6754208656	       -0.0127104976	        0.0063860109	       -0.0010278775	        0.0000000000	        0.0000000000	        0.0000000000	      -32.8576344783	      631.2410040330	       17.9033495408	        0.8721444479	        0.0000000000	       -0.0406468801	        0.0000000000	        0.0000000000	        0.0000000000	        0.0000000000	        0.0000000000	        0.0000000000	
